# Wonderland deterministic presentation facade v1
# Geometry source winding normalized to explicit normals for OBJ export.
# identity b7accffa47d9d2edc85f5be2aa0d44dd6fc9d00bb72a52d41d3f7d20139b96ea
v 1.000000000 0.000000000 0.000000000
v 1.000000000 0.000243506 0.012987013
v 0.987012982 0.000121753 0.012987014
v 0.987012982 -0.000121753 0.000000001
v 1.000000000 0.000243506 0.012987013
v 1.000000000 0.000487013 0.025974026
v 0.987012982 0.000365260 0.025974026
v 0.987012982 0.000121753 0.012987014
v 1.000000000 0.000487013 0.025974026
v 1.000000000 0.000730519 0.038961038
v 0.987012982 0.000608766 0.038961038
v 0.987012982 0.000365260 0.025974026
v 1.000000000 0.000730519 0.038961038
v 1.000000000 0.000974026 0.051948052
v 0.987012982 0.000852273 0.051948052
v 0.987012982 0.000608766 0.038961038
v 1.000000000 0.000974026 0.051948052
v 1.000000000 0.001217532 0.064935066
v 0.987012982 0.001095779 0.064935066
v 0.987012982 0.000852273 0.051948052
v 1.000000000 0.001217532 0.064935066
v 1.000000000 0.001461039 0.077922076
v 0.987012982 0.001339286 0.077922076
v 0.987012982 0.001095779 0.064935066
v 0.987012982 -0.000121753 0.000000001
v 0.987012982 0.000121753 0.012987014
v 0.974025965 0.000000000 0.012987015
v 0.974025965 -0.000243506 0.000000002
v 0.987012982 0.000121753 0.012987014
v 0.987012982 0.000365260 0.025974026
v 0.974025965 0.000243506 0.025974028
v 0.974025965 0.000000000 0.012987015
v 0.987012982 0.000365260 0.025974026
v 0.987012982 0.000608766 0.038961038
v 0.974025965 0.000487013 0.038961038
v 0.974025965 0.000243506 0.025974028
v 0.987012982 0.000608766 0.038961038
v 0.987012982 0.000852273 0.051948052
v 0.974025965 0.000730519 0.051948052
v 0.974025965 0.000487013 0.038961038
v 0.987012982 0.000852273 0.051948052
v 0.987012982 0.001095779 0.064935066
v 0.974025965 0.000974026 0.064935066
v 0.974025965 0.000730519 0.051948052
v 0.987012982 0.001095779 0.064935066
v 0.987012982 0.001339286 0.077922076
v 0.974025965 0.001217532 0.077922076
v 0.974025965 0.000974026 0.064935066
v 0.974025965 -0.000243506 0.000000002
v 0.974025965 0.000000000 0.012987015
v 0.961038947 -0.000121753 0.012987015
v 0.961038947 -0.000365260 0.000000002
v 0.974025965 0.000000000 0.012987015
v 0.974025965 0.000243506 0.025974028
v 0.961038947 0.000121753 0.025974028
v 0.961038947 -0.000121753 0.012987015
v 0.974025965 0.000243506 0.025974028
v 0.974025965 0.000487013 0.038961038
v 0.961038947 0.000365260 0.038961042
v 0.961038947 0.000121753 0.025974028
v 0.974025965 0.000243506 0.025974028
v 0.974025965 0.000487013 0.038961038
v 0.961038947 0.000365260 0.038961042
v 0.961038947 0.000121753 0.025974028
v 0.974935055 0.000270292 0.026948055
v 0.974935055 0.000233766 0.025000000
v 0.974935055 0.019426137 0.026948055
v 0.974935055 0.019389611 0.025000000
v 0.975000024 0.000234375 0.025000000
v 0.961038947 0.000103490 0.025000000
v 0.975000024 0.019390220 0.025000000
v 0.961038947 0.019259335 0.025000000
v 0.961038947 0.000140016 0.026948055
v 0.975000024 0.000270901 0.026948055
v 0.961038947 0.019295862 0.026948055
v 0.975000024 0.019426746 0.026948055
v 0.961038947 0.019276707 0.026948055
v 0.975000024 0.019407591 0.026948055
v 0.961038947 0.019276707 0.025000004
v 0.975000024 0.019407591 0.025000004
v 0.975000024 0.000235593 0.025064936
v 0.973051965 0.000217330 0.025064936
v 0.975000024 0.019391438 0.025064936
v 0.973051965 0.019373175 0.025064936
v 0.975000024 0.000496144 0.038961038
v 0.975000024 0.000234375 0.025000000
v 0.975000024 0.019651989 0.038961038
v 0.975000024 0.019390220 0.025000000
v 0.973051965 0.000216112 0.025000000
v 0.973051965 0.000477881 0.038961038
v 0.973051965 0.019371957 0.025000000
v 0.973051965 0.019633727 0.038961038
v 0.973051965 0.019352801 0.025000000
v 0.973051965 0.019614570 0.038961038
v 0.975000024 0.019352801 0.025000000
v 0.975000024 0.019614570 0.038961038
v 0.974025965 0.000487013 0.038961038
v 0.974025965 0.000730519 0.051948052
v 0.961038947 0.000608766 0.051948056
v 0.961038947 0.000365260 0.038961042
v 0.974025965 0.000487013 0.038961038
v 0.974025965 0.000730519 0.051948052
v 0.961038947 0.000608766 0.051948056
v 0.961038947 0.000365260 0.038961042
v 0.973051965 0.000738434 0.052857146
v 0.975000024 0.000756697 0.052857146
v 0.973051965 0.019894278 0.052857146
v 0.975000024 0.019912543 0.052857146
v 0.975000024 0.000757914 0.052922074
v 0.975000024 0.000496144 0.038961038
v 0.975000024 0.019913757 0.052922074
v 0.975000024 0.019651989 0.038961038
v 0.973051965 0.000477881 0.038961038
v 0.973051965 0.000739651 0.052922074
v 0.973051965 0.019633727 0.038961038
v 0.973051965 0.019895496 0.052922074
v 0.973051965 0.019614570 0.038961038
v 0.973051965 0.019876340 0.052922074
v 0.975000024 0.019614570 0.038961038
v 0.975000024 0.019876340 0.052922074
v 0.974025965 0.000730519 0.051948052
v 0.974025965 0.000974026 0.064935066
v 0.961038947 0.000852273 0.064935066
v 0.961038947 0.000608766 0.051948056
v 0.974025965 0.000730519 0.051948052
v 0.974025965 0.000974026 0.064935066
v 0.961038947 0.000852273 0.064935066
v 0.961038947 0.000608766 0.051948056
v 0.974025965 0.000730519 0.051948052
v 0.974025965 0.000974026 0.064935066
v 0.961038947 0.000852273 0.064935066
v 0.961038947 0.000608766 0.051948056
v 0.961038947 0.000608766 0.051948056
v 0.974025965 0.000974026 0.064935066
v 0.961038947 0.019381493 0.051948056
v 0.974025965 0.019746754 0.064935066
v 0.974025965 0.000974026 0.064935066
v 0.961038947 0.000608766 0.051948056
v 0.974025965 0.019746754 0.064935066
v 0.961038947 0.019381493 0.051948056
v 0.974025965 0.000974026 0.064935066
v 0.974025965 0.001217532 0.077922076
v 0.961038947 0.001095779 0.077922076
v 0.961038947 0.000852273 0.064935066
v 0.961038947 -0.000365260 0.000000002
v 0.961038947 -0.000121753 0.012987015
v 0.948051929 -0.000243506 0.012987016
v 0.948051929 -0.000487013 0.000000003
v 0.961038947 -0.000121753 0.012987015
v 0.961038947 0.000121753 0.025974028
v 0.948051929 0.000000000 0.025974030
v 0.948051929 -0.000243506 0.012987016
v 0.961038947 0.000121753 0.025974028
v 0.961038947 0.000365260 0.038961042
v 0.948051929 0.000243506 0.038961042
v 0.948051929 0.000000000 0.025974030
v 0.961038947 0.000121753 0.025974028
v 0.961038947 0.000365260 0.038961042
v 0.948051929 0.000243506 0.038961042
v 0.948051929 0.000000000 0.025974030
v 0.947142839 -0.000026786 0.025000002
v 0.947142839 0.000009740 0.026948057
v 0.947142839 0.019129060 0.025000002
v 0.947142839 0.019165587 0.026948057
v 0.961038947 0.000103490 0.025000000
v 0.947077930 -0.000027394 0.025000002
v 0.961038947 0.019259335 0.025000000
v 0.947077930 0.019128451 0.025000002
v 0.947077930 0.000009132 0.026948057
v 0.961038947 0.000140016 0.026948055
v 0.947077930 0.019164978 0.026948057
v 0.961038947 0.019295862 0.026948055
v 0.947077930 0.019145820 0.026948057
v 0.961038947 0.019276707 0.026948055
v 0.947077930 0.019145820 0.025000006
v 0.961038947 0.019276707 0.025000004
v 0.961038947 0.000365260 0.038961042
v 0.961038947 0.000608766 0.051948056
v 0.948051929 0.000487013 0.051948056
v 0.948051929 0.000243506 0.038961042
v 0.961038947 0.000365260 0.038961042
v 0.961038947 0.000608766 0.051948056
v 0.948051929 0.000487013 0.051948056
v 0.948051929 0.000243506 0.038961042
v 0.961038947 0.000365260 0.038961042
v 0.961038947 0.000608766 0.051948056
v 0.948051929 0.000487013 0.051948056
v 0.948051929 0.000243506 0.038961042
v 0.960064948 0.000337865 0.037987016
v 0.947077930 0.000459619 0.050974026
v 0.960064948 0.019493710 0.037987016
v 0.947077930 0.019615464 0.050974026
v 0.960064948 0.019474553 0.037987016
v 0.947077930 0.019596308 0.050974026
v 0.962013006 0.019474553 0.039935067
v 0.949025989 0.019596308 0.052922077
v 0.949025989 0.000514407 0.052922077
v 0.962013006 0.000392654 0.039935071
v 0.949025989 0.019670254 0.052922077
v 0.962013006 0.019548498 0.039935071
v 0.962013006 0.000392654 0.039935071
v 0.960064948 0.000337865 0.037987016
v 0.962013006 0.019548498 0.039935071
v 0.960064948 0.019493710 0.037987016
v 0.947077930 0.000459619 0.050974026
v 0.949025989 0.000514407 0.052922077
v 0.947077930 0.019615464 0.050974026
v 0.949025989 0.019670254 0.052922077
v 0.961038947 0.000608766 0.051948056
v 0.961038947 0.000852273 0.064935066
v 0.948051929 0.000730519 0.064935066
v 0.948051929 0.000487013 0.051948056
v 0.961038947 0.000852273 0.064935066
v 0.961038947 0.001095779 0.077922076
v 0.948051929 0.000974026 0.077922076
v 0.948051929 0.000730519 0.064935066
v 0.948051929 -0.000487013 0.000000003
v 0.948051929 -0.000243506 0.012987016
v 0.935064912 -0.000365260 0.012987017
v 0.935064912 -0.000608766 0.000000004
v 0.948051929 -0.000243506 0.012987016
v 0.948051929 0.000000000 0.025974030
v 0.935064912 -0.000121753 0.025974030
v 0.935064912 -0.000365260 0.012987017
v 0.948051929 -0.006737013 0.012987016
v 0.948051929 -0.006493506 0.025974030
v 0.935064912 -0.006615260 0.025974030
v 0.935064912 -0.006858767 0.012987017
v 0.948051929 -0.000135281 0.012987016
v 0.948051929 0.000108225 0.025974030
v 0.948051929 -0.006385282 0.025974030
v 0.948051929 -0.006628788 0.012987016
v 0.948051929 -0.000135281 0.012987016
v 0.948051929 0.000108225 0.025974030
v 0.935064912 -0.000013528 0.025974030
v 0.935064912 -0.000257035 0.012987017
v 0.948051929 0.000000000 0.025974030
v 0.948051929 0.000243506 0.038961042
v 0.935064912 0.000121753 0.038961042
v 0.935064912 -0.000121753 0.025974030
v 0.948051929 -0.006493506 0.025974030
v 0.948051929 -0.006250000 0.038961042
v 0.935064912 -0.006371753 0.038961042
v 0.935064912 -0.006615260 0.025974030
v 0.948051929 0.000108225 0.025974030
v 0.948051929 0.000351732 0.038961042
v 0.948051929 -0.006141775 0.038961042
v 0.948051929 -0.006385282 0.025974030
v 0.948051929 0.000351732 0.038961042
v 0.935064912 0.000229978 0.038961042
v 0.935064912 -0.006263528 0.038961042
v 0.948051929 -0.006141775 0.038961042
v 0.948051929 0.000108225 0.025974030
v 0.948051929 0.000351732 0.038961042
v 0.935064912 0.000229978 0.038961042
v 0.935064912 -0.000013528 0.025974030
v 0.948051929 0.000243506 0.038961042
v 0.948051929 0.000487013 0.051948056
v 0.935064912 0.000365260 0.051948056
v 0.935064912 0.000121753 0.038961042
v 0.948051929 0.000487013 0.051948056
v 0.948051929 0.000730519 0.064935066
v 0.935064912 0.000608766 0.064935073
v 0.935064912 0.000365260 0.051948056
v 0.948051929 0.000595238 0.051948056
v 0.948051929 0.000838745 0.064935066
v 0.935064912 0.000716991 0.064935073
v 0.935064912 0.000473485 0.051948056
v 0.948051929 0.000730519 0.064935066
v 0.948051929 0.000974026 0.077922076
v 0.935064912 0.000852273 0.077922083
v 0.935064912 0.000608766 0.064935073
v 0.935064912 -0.000608766 0.000000004
v 0.935064912 -0.000365260 0.012987017
v 0.922077894 -0.000487013 0.012987018
v 0.922077894 -0.000730519 0.000000005
v 0.935064912 -0.000365260 0.012987017
v 0.935064912 -0.000121753 0.025974030
v 0.922077894 -0.000243506 0.025974030
v 0.922077894 -0.000487013 0.012987018
v 0.935064912 -0.000121753 0.025974030
v 0.935064912 0.000121753 0.038961042
v 0.922077894 0.000000000 0.038961042
v 0.922077894 -0.000243506 0.025974030
v 0.935064912 0.000121753 0.038961042
v 0.935064912 0.000365260 0.051948056
v 0.922077894 0.000243506 0.051948056
v 0.922077894 0.000000000 0.038961042
v 0.935064912 0.000365260 0.051948056
v 0.935064912 0.000608766 0.064935073
v 0.922077954 0.000487013 0.064935073
v 0.922077894 0.000243506 0.051948056
v 0.935064912 0.000608766 0.064935073
v 0.935064912 0.000852273 0.077922083
v 0.922077954 0.000730519 0.077922083
v 0.922077954 0.000487013 0.064935073
v 0.974025965 0.019399351 0.025974028
v 0.974025965 0.019642860 0.038961038
v 0.961038947 0.019521104 0.038961042
v 0.961038947 0.019277597 0.025974028
v 0.975000024 0.019391438 0.025064936
v 0.973051965 0.019373173 0.025064936
v 0.975000024 0.038547285 0.025064936
v 0.973051965 0.038529020 0.025064936
v 0.973051965 0.019650772 0.039870135
v 0.975000024 0.019669034 0.039870135
v 0.973051965 0.038806617 0.039870135
v 0.975000024 0.038824879 0.039870135
v 0.975000024 0.019670254 0.039935067
v 0.975000024 0.019390220 0.025000000
v 0.975000024 0.038826097 0.039935067
v 0.975000024 0.038546063 0.025000000
v 0.973051965 0.019371957 0.025000000
v 0.973051965 0.019651989 0.039935067
v 0.973051965 0.038527802 0.025000000
v 0.973051965 0.038807832 0.039935067
v 0.973051965 0.038508646 0.025000000
v 0.973051965 0.038788676 0.039935067
v 0.975000024 0.038508646 0.025000000
v 0.975000024 0.038788676 0.039935067
v 0.980519474 0.019764611 0.038961038
v 0.980519474 0.020008119 0.058441557
v 0.970779240 0.022077924 0.048701297
v 0.970779240 0.022077924 0.048701297
v 0.980519474 0.020008119 0.058441557
v 0.941558421 0.019642860 0.058441561
v 0.951298714 0.021956170 0.048701301
v 0.970779240 0.022077924 0.048701297
v 0.941558421 0.019642860 0.058441561
v 0.941558421 0.019399352 0.038961042
v 0.951298714 0.021956170 0.048701301
v 0.951298714 0.021956170 0.048701301
v 0.941558421 0.019399352 0.038961042
v 0.980519474 0.019764611 0.038961038
v 0.970779240 0.022077924 0.048701297
v 0.951298714 0.021956170 0.048701301
v 0.980519474 0.018925866 0.058441557
v 0.980519474 0.020008119 0.058441557
v 0.980519474 0.019764611 0.038961038
v 0.980519474 0.018682361 0.038961038
v 0.941558421 0.018560607 0.058441561
v 0.941558421 0.019642860 0.058441561
v 0.980519474 0.020008119 0.058441557
v 0.980519474 0.018925866 0.058441557
v 0.941558421 0.018317102 0.038961042
v 0.941558421 0.019399352 0.038961042
v 0.941558421 0.019642860 0.058441561
v 0.941558421 0.018560607 0.058441561
v 0.980519474 0.018682361 0.038961038
v 0.980519474 0.019764611 0.038961038
v 0.941558421 0.019399352 0.038961042
v 0.941558421 0.018317102 0.038961042
v 0.941558421 0.018317102 0.038961042
v 0.941558421 0.018560607 0.058441561
v 0.980519474 0.018925866 0.058441557
v 0.980519474 0.018682361 0.038961038
v 0.972810447 0.021644196 0.049699418
v 0.970779240 0.022088746 0.048701297
v 0.980519474 0.019775433 0.038961038
v 0.980519474 0.019813301 0.041990396
v 0.972831309 0.021614812 0.047724027
v 0.970779240 0.022088746 0.048701297
v 0.970779240 0.022088746 0.048701297
v 0.972810447 0.021644196 0.049699418
v 0.972831309 0.021614812 0.047724027
v 0.980519474 0.019981075 0.055412203
v 0.980519474 0.020018941 0.058441557
v 0.970779240 0.022088746 0.048701297
v 0.969801545 0.021624275 0.050753381
v 0.970779240 0.022088746 0.048701297
v 0.980519474 0.020018941 0.058441557
v 0.977489710 0.019990537 0.058441557
v 0.952297211 0.021512980 0.050732538
v 0.951298714 0.021966992 0.048701301
v 0.970779240 0.022088746 0.048701297
v 0.969801545 0.021624275 0.050753381
v 0.952297211 0.021512980 0.050732538
v 0.944588184 0.019682085 0.058441561
v 0.941558421 0.019653682 0.058441561
v 0.951298714 0.021966992 0.048701301
v 0.949267447 0.021446707 0.047703180
v 0.951298714 0.021966992 0.048701301
v 0.941558421 0.019653682 0.058441561
v 0.941558421 0.019615816 0.055412207
v 0.949289918 0.021477550 0.049721863
v 0.951298714 0.021966992 0.048701301
v 0.951298714 0.021966992 0.048701301
v 0.949267447 0.021446707 0.047703180
v 0.949289918 0.021477550 0.049721863
v 0.941558421 0.019448040 0.041990399
v 0.941558421 0.019410174 0.038961042
v 0.951298714 0.021966992 0.048701301
v 0.952319682 0.021468088 0.046692505
v 0.951298714 0.021966992 0.048701301
v 0.941558421 0.019410174 0.038961042
v 0.944588184 0.019438578 0.038961042
v 0.969780684 0.021577924 0.046670064
v 0.970779240 0.022088746 0.048701297
v 0.951298714 0.021966992 0.048701301
v 0.952319682 0.021468088 0.046692505
v 0.969780684 0.021577924 0.046670064
v 0.977489710 0.019747030 0.038961038
v 0.980519474 0.019775433 0.038961038
v 0.970779240 0.022088746 0.048701297
v 0.961038947 0.019034093 0.019480521
v 0.961038947 0.019764611 0.058441561
v 0.951298714 0.021956170 0.048701301
v 0.951298714 0.021712663 0.029220782
v 0.961038947 0.019764611 0.058441561
v 0.941558421 0.019642860 0.058441561
v 0.951298714 0.021956170 0.048701301
v 0.951298714 0.021956170 0.048701301
v 0.941558421 0.019642860 0.058441561
v 0.941558421 0.018912338 0.019480523
v 0.951298714 0.021712663 0.029220782
v 0.951298714 0.021956170 0.048701301
v 0.941558421 0.018912338 0.019480523
v 0.961038947 0.019034093 0.019480521
v 0.951298714 0.021712663 0.029220782
v 0.951298714 0.021712663 0.029220782
v 0.961038947 0.018682361 0.058441561
v 0.961038947 0.019764611 0.058441561
v 0.961038947 0.019034093 0.019480521
v 0.961038947 0.017951841 0.019480521
v 0.941558421 0.018560607 0.058441561
v 0.941558421 0.019642860 0.058441561
v 0.961038947 0.019764611 0.058441561
v 0.961038947 0.018682361 0.058441561
v 0.941558421 0.017830087 0.019480523
v 0.941558421 0.018912338 0.019480523
v 0.941558421 0.019642860 0.058441561
v 0.941558421 0.018560607 0.058441561
v 0.961038947 0.017951841 0.019480521
v 0.961038947 0.019034093 0.019480521
v 0.941558421 0.018912338 0.019480523
v 0.941558421 0.017830087 0.019480523
v 0.941558421 0.017830087 0.019480523
v 0.941558421 0.018560607 0.058441561
v 0.961038947 0.018682361 0.058441561
v 0.961038947 0.017951841 0.019480521
v 0.953295767 0.021231078 0.030251918
v 0.951298714 0.021723485 0.029220782
v 0.961038947 0.019044915 0.019480521
v 0.961038947 0.019101694 0.022508696
v 0.953340590 0.021450793 0.047714997
v 0.951298714 0.021966992 0.048701301
v 0.951298714 0.021723485 0.029220782
v 0.953295767 0.021231078 0.030251918
v 0.953340590 0.021450793 0.047714997
v 0.961038947 0.019718654 0.055413388
v 0.961038947 0.019775433 0.058441561
v 0.951298714 0.021966992 0.048701301
v 0.950310528 0.021488633 0.050743174
v 0.951298714 0.021966992 0.048701301
v 0.961038947 0.019775433 0.058441561
v 0.958008885 0.019756496 0.058441561
v 0.952297509 0.021503512 0.050732538
v 0.951298714 0.021966992 0.048701301
v 0.951298714 0.021966992 0.048701301
v 0.950310528 0.021488633 0.050743174
v 0.952297509 0.021503512 0.050732538
v 0.944588542 0.019672619 0.058441561
v 0.941558421 0.019653682 0.058441561
v 0.951298714 0.021966992 0.048701301
v 0.949267447 0.021427797 0.047704361
v 0.951298714 0.021966992 0.048701301
v 0.941558421 0.019653682 0.058441561
v 0.941558421 0.019596903 0.055413388
v 0.949313760 0.021209590 0.030264005
v 0.951298714 0.021723485 0.029220782
v 0.951298714 0.021966992 0.048701301
v 0.949267447 0.021427797 0.047704361
v 0.949313760 0.021209590 0.030264005
v 0.941558421 0.018979939 0.022508698
v 0.941558421 0.018923162 0.019480523
v 0.951298714 0.021723485 0.029220782
v 0.952343822 0.021171749 0.027235832
v 0.951298714 0.021723485 0.029220782
v 0.941558421 0.018923162 0.019480523
v 0.944588482 0.018942097 0.019480523
v 0.950265646 0.021155361 0.027223745
v 0.951298714 0.021723485 0.029220782
v 0.951298714 0.021723485 0.029220782
v 0.952343822 0.021171749 0.027235832
v 0.950265646 0.021155361 0.027223745
v 0.958008885 0.019025978 0.019480521
v 0.961038947 0.019044915 0.019480521
v 0.951298714 0.021723485 0.029220782
vt 0.500000000 0.000000000
vt 1.000000000 0.500000000
vt 0.500000000 1.000000000
vt 0.000000000 0.500000000
vt 1.000000000 0.500000000
vt 1.500000000 1.000000000
vt 1.000000000 1.500000000
vt 0.500000000 1.000000000
vt 1.500000000 1.000000000
vt 2.000000000 1.500000000
vt 1.500000000 2.000000000
vt 1.000000000 1.500000000
vt 2.000000000 1.500000000
vt 2.500000000 2.000000000
vt 2.000000000 2.500000000
vt 1.500000000 2.000000000
vt 2.500000000 2.000000000
vt 3.000000000 2.500000000
vt 2.500000000 3.000000000
vt 2.000000000 2.500000000
vt 3.000000000 2.500000000
vt 3.500000000 3.000000000
vt 3.000000000 3.500000000
vt 2.500000000 3.000000000
vt 0.000000000 0.500000000
vt 0.500000000 1.000000000
vt 0.000000000 1.500000000
vt -0.500000000 1.000000000
vt 0.500000000 1.000000000
vt 1.000000000 1.500000000
vt 0.500000000 2.000000000
vt 0.000000000 1.500000000
vt 1.000000000 1.500000000
vt 1.500000000 2.000000000
vt 1.000000000 2.500000000
vt 0.500000000 2.000000000
vt 1.500000000 2.000000000
vt 2.000000000 2.500000000
vt 1.500000000 3.000000000
vt 1.000000000 2.500000000
vt 2.000000000 2.500000000
vt 2.500000000 3.000000000
vt 2.000000000 3.500000000
vt 1.500000000 3.000000000
vt 2.500000000 3.000000000
vt 3.000000000 3.500000000
vt 2.500000000 4.000000000
vt 2.000000000 3.500000000
vt -0.500000000 1.000000000
vt 0.000000000 1.500000000
vt -0.500000000 2.000000000
vt -1.000000000 1.500000000
vt 0.000000000 1.500000000
vt 0.500000000 2.000000000
vt 0.000000000 2.500000000
vt -0.500000000 2.000000000
vt 0.500000000 2.000000000
vt 1.000000000 2.500000000
vt 0.500000000 3.000000000
vt 0.000000000 2.500000000
vt 0.500000000 2.000000000
vt 1.000000000 2.500000000
vt 0.500000000 3.000000000
vt 0.000000000 2.500000000
vt 0.000000000 0.000000000
vt 0.150000006 0.000000000
vt 0.000000000 1.000000000
vt 0.150000006 1.000000000
vt 0.075000003 0.000000000
vt -1.000000000 0.000000000
vt 0.075000003 1.000000000
vt -1.000000000 1.000000000
vt -0.000000000 0.000000000
vt 1.075000048 0.000000000
vt -0.000000000 1.000000000
vt 1.075000048 1.000000000
vt 0.000000000 0.000000000
vt 0.000000000 0.000000000
vt 0.000000000 0.000000000
vt 0.000000000 0.000000000
vt 0.000000000 0.000000000
vt 0.150000006 0.000000000
vt 0.000000000 1.000000000
vt 0.150000006 1.000000000
vt 0.000000000 0.000000000
vt -1.075000048 0.000000000
vt 0.000000000 1.000000000
vt -1.075000048 1.000000000
vt -0.075000003 0.000000000
vt 1.000000000 0.000000000
vt -0.075000003 1.000000000
vt 1.000000000 1.000000000
vt 0.000000000 0.000000000
vt 0.000000000 0.000000000
vt 0.000000000 0.000000000
vt 0.000000000 0.000000000
vt 1.000000000 2.500000000
vt 1.500000000 3.000000000
vt 1.000000000 3.500000000
vt 0.500000000 3.000000000
vt 1.000000000 2.500000000
vt 1.500000000 3.000000000
vt 1.000000000 3.500000000
vt 0.500000000 3.000000000
vt 0.000000000 0.000000000
vt 0.150000006 0.000000000
vt 0.000000000 1.000000000
vt 0.150000006 1.000000000
vt 0.075000003 0.000000000
vt -1.000000000 0.000000000
vt 0.075000003 1.000000000
vt -1.000000000 1.000000000
vt 0.000000000 0.000000000
vt 1.075000048 0.000000000
vt 0.000000000 1.000000000
vt 1.075000048 1.000000000
vt 0.000000000 0.000000000
vt 0.000000000 0.000000000
vt 0.000000000 0.000000000
vt 0.000000000 0.000000000
vt 1.500000000 3.000000000
vt 2.000000000 3.500000000
vt 1.500000000 4.000000000
vt 1.000000000 3.500000000
vt 1.500000000 3.000000000
vt 2.000000000 3.500000000
vt 1.500000000 4.000000000
vt 1.000000000 3.500000000
vt 1.500000000 3.000000000
vt 2.000000000 3.500000000
vt 1.500000000 4.000000000
vt 1.000000000 3.500000000
vt 0.000000000 0.000000000
vt 1.000000000 0.000000000
vt 0.000000000 0.980000019
vt 1.000000000 0.980000019
vt 0.000000000 0.000000000
vt 1.000000000 0.000000000
vt 0.000000000 0.980000019
vt 1.000000000 0.980000019
vt 2.000000000 3.500000000
vt 2.500000000 4.000000000
vt 2.000000000 4.500000000
vt 1.500000000 4.000000000
vt -1.000000000 1.500000000
vt -0.500000000 2.000000000
vt -1.000000000 2.500000000
vt -1.500000000 2.000000000
vt -0.500000000 2.000000000
vt 0.000000000 2.500000000
vt -0.500000000 3.000000000
vt -1.000000000 2.500000000
vt 0.000000000 2.500000000
vt 0.500000000 3.000000000
vt 0.000000000 3.500000000
vt -0.500000000 3.000000000
vt 0.000000000 2.500000000
vt 0.500000000 3.000000000
vt 0.000000000 3.500000000
vt -0.500000000 3.000000000
vt 0.000000000 0.000000000
vt 0.150000006 0.000000000
vt 0.000000000 1.000000000
vt 0.150000006 1.000000000
vt -0.000000000 0.000000000
vt -1.075000048 0.000000000
vt -0.000000000 1.000000000
vt -1.075000048 1.000000000
vt -0.075000003 0.000000000
vt 1.000000000 0.000000000
vt -0.075000003 1.000000000
vt 1.000000000 1.000000000
vt 0.000000000 0.000000000
vt 0.000000000 0.000000000
vt 0.000000000 0.000000000
vt 0.000000000 0.000000000
vt 0.500000000 3.000000000
vt 1.000000000 3.500000000
vt 0.500000000 4.000000000
vt 0.000000000 3.500000000
vt 0.500000000 3.000000000
vt 1.000000000 3.500000000
vt 0.500000000 4.000000000
vt 0.000000000 3.500000000
vt 0.500000000 3.000000000
vt 1.000000000 3.500000000
vt 0.500000000 4.000000000
vt 0.000000000 3.500000000
vt 0.000000000 0.000000000
vt 1.000000000 0.000000000
vt 0.000000000 1.000000000
vt 1.000000000 1.000000000
vt 0.000000000 0.000000000
vt 0.000000000 0.000000000
vt 0.000000000 0.000000000
vt 0.000000000 0.000000000
vt 0.000000000 0.000000000
vt 1.000000000 0.000000000
vt 0.000000000 1.000000000
vt 1.000000000 1.000000000
vt 0.000000000 0.000000000
vt 0.150000006 0.000000000
vt 0.000000000 1.000000000
vt 0.150000006 1.000000000
vt 0.000000000 0.000000000
vt 0.150000006 0.000000000
vt 0.000000000 1.000000000
vt 0.150000006 1.000000000
vt 1.000000000 3.500000000
vt 1.500000000 4.000000000
vt 1.000000000 4.500000000
vt 0.500000000 4.000000000
vt 1.500000000 4.000000000
vt 2.000000000 4.500000000
vt 1.500000000 5.000000000
vt 1.000000000 4.500000000
vt -1.500000000 2.000000000
vt -1.000000000 2.500000000
vt -1.500000000 3.000000000
vt -2.000000000 2.500000000
vt -1.000000000 2.500000000
vt -0.500000000 3.000000000
vt -1.000000000 3.500000000
vt -1.500000000 3.000000000
vt -1.000000000 2.500000000
vt -0.500000000 3.000000000
vt -1.000000000 3.500000000
vt -1.500000000 3.000000000
vt 0.000000000 0.000000000
vt 1.000000000 0.000000000
vt 1.000000000 1.000000000
vt 0.000000000 1.000000000
vt -1.000000000 2.500000000
vt -0.500000000 3.000000000
vt -1.000000000 3.500000000
vt -1.500000000 3.000000000
vt -0.500000000 3.000000000
vt 0.000000000 3.500000000
vt -0.500000000 4.000000000
vt -1.000000000 3.500000000
vt -0.500000000 3.000000000
vt 0.000000000 3.500000000
vt -0.500000000 4.000000000
vt -1.000000000 3.500000000
vt 0.000000000 0.000000000
vt 1.000000000 0.000000000
vt 1.000000000 1.000000000
vt 0.000000000 1.000000000
vt 0.000000000 0.000000000
vt 1.000000000 0.000000000
vt 1.000000000 1.000000000
vt 0.000000000 1.000000000
vt -0.500000000 3.000000000
vt 0.000000000 3.500000000
vt -0.500000000 4.000000000
vt -1.000000000 3.500000000
vt 0.000000000 3.500000000
vt 0.500000000 4.000000000
vt 0.000000000 4.500000000
vt -0.500000000 4.000000000
vt 0.500000000 4.000000000
vt 1.000000000 4.500000000
vt 0.500000000 5.000000000
vt 0.000000000 4.500000000
vt 0.500000000 4.000000000
vt 1.000000000 4.500000000
vt 0.500000000 5.000000000
vt 0.000000000 4.500000000
vt 1.000000000 4.500000000
vt 1.500000000 5.000000000
vt 1.000000000 5.500000000
vt 0.500000000 5.000000000
vt -2.000000000 2.500000000
vt -1.500000000 3.000000000
vt -2.000000000 3.500000000
vt -2.500000000 3.000000000
vt -1.500000000 3.000000000
vt -1.000000000 3.500000000
vt -1.500000000 4.000000000
vt -2.000000000 3.500000000
vt -1.000000000 3.500000000
vt -0.500000000 4.000000000
vt -1.000000000 4.500000000
vt -1.500000000 4.000000000
vt -0.500000000 4.000000000
vt 0.000000000 4.500000000
vt -0.500000000 5.000000000
vt -1.000000000 4.500000000
vt 0.000000000 4.500000000
vt 0.500000000 5.000000000
vt 0.000000000 5.500000000
vt -0.500000000 5.000000000
vt 0.500000000 5.000000000
vt 1.000000000 5.500000000
vt 0.500000000 6.000000000
vt 0.000000000 5.500000000
vt 0.500000000 2.000000000
vt 1.000000000 2.500000000
vt 0.500000000 3.000000000
vt 0.000000000 2.500000000
vt 0.000000000 1.000000000
vt 0.150000006 1.000000000
vt 0.000000000 2.000000000
vt 0.150000006 2.000000000
vt 0.000000000 1.000000000
vt 0.150000006 1.000000000
vt 0.000000000 2.000000000
vt 0.150000006 2.000000000
vt 0.075000003 1.000000000
vt -1.075000048 1.000000000
vt 0.075000003 2.000000000
vt -1.075000048 2.000000000
vt -0.075000003 1.000000000
vt 1.075000048 1.000000000
vt -0.075000003 2.000000000
vt 1.075000048 2.000000000
vt 0.000000000 0.000000000
vt 0.000000000 0.000000000
vt 0.000000000 0.000000000
vt 0.000000000 0.000000000
vt 6.000000000 -4.500000000
vt 9.000000000 -4.500000000
vt 7.500000000 -6.750000000
vt 7.500000000 -6.750000000
vt 3.000000000 13.500000000
vt 9.000000000 13.500000000
vt 7.500000000 11.250000000
vt 4.500000000 11.250000000
vt 9.000000000 13.500000000
vt 6.000000000 13.500000000
vt 7.500000000 11.250000000
vt 7.500000000 11.250000000
vt 9.000000000 -9.000000000
vt 3.000000000 -9.000000000
vt 4.500000000 -11.250000000
vt 7.500000000 -11.250000000
vt 11.880000114 0.730000019
vt 11.880000114 0.400000006
vt 8.910000801 0.400000006
vt 8.910000801 0.730000019
vt 17.820001602 0.730000019
vt 17.820001602 0.400000006
vt 11.880000114 0.400000006
vt 11.880000114 0.730000019
vt 14.850000381 0.730000019
vt 14.850000381 0.400000006
vt 17.820001602 0.400000006
vt 17.820001602 0.730000019
vt 8.910000801 0.730000019
vt 8.910000801 0.400000006
vt 14.850000381 0.400000006
vt 14.850000381 0.730000019
vt 0.000000000 0.730000019
vt 0.000000000 0.730000019
vt 0.000000000 0.730000019
vt 0.000000000 0.730000019
vt -0.034999993 0.330000013
vt 0.000000000 0.000000000
vt -1.678334594 0.000000000
vt -1.363334656 0.330000013
vt 0.114135824 0.330000013
vt 0.000000000 0.000000000
vt 0.000000000 0.000000000
vt -0.114135824 0.330000013
vt 0.034999993 0.330000013
vt 1.363334656 0.330000013
vt 1.678334594 0.000000000
vt 0.000000000 0.000000000
vt -0.034999978 0.330000013
vt 0.000000000 0.000000000
vt -1.661280751 0.000000000
vt -1.346280932 0.330000013
vt 2.136043549 0.330000013
vt 2.250175714 0.000000000
vt 0.000000000 0.000000000
vt 0.114132047 0.330000013
vt 2.285175800 0.330000013
vt 3.596456766 0.330000013
vt 3.911456585 0.000000000
vt 2.250175714 0.000000000
vt -0.035000015 0.330000013
vt 0.000000000 0.000000000
vt -1.678334355 0.000000000
vt -1.363334179 0.330000013
vt 0.116640434 0.330000013
vt 0.000000000 0.000000000
vt 0.000000000 0.000000000
vt -0.116640434 0.330000013
vt 0.035000015 0.330000013
vt 1.363334179 0.330000013
vt 1.678334355 0.000000000
vt 0.000000000 0.000000000
vt -0.034999993 0.330000013
vt 0.000000000 0.000000000
vt -1.697082162 0.000000000
vt -1.382082224 0.330000013
vt 2.133541584 0.330000013
vt 2.250175714 0.000000000
vt 0.000000000 0.000000000
vt 0.116634130 0.330000013
vt 2.285175800 0.330000013
vt 3.632257938 0.330000013
vt 3.947257996 0.000000000
vt 2.250175714 0.000000000
vt 3.000000000 -9.000000000
vt 9.000000000 -9.000000000
vt 7.500000000 -11.250000000
vt 4.500000000 -11.250000000
vt 6.000000000 13.500000000
vt 9.000000000 13.500000000
vt 7.500000000 11.250000000
vt 7.500000000 11.250000000
vt 9.000000000 13.500000000
vt 3.000000000 13.500000000
vt 4.500000000 11.250000000
vt 7.500000000 11.250000000
vt 9.000000000 -4.500000000
vt 6.000000000 -4.500000000
vt 7.500000000 -6.750000000
vt 7.500000000 -6.750000000
vt 14.850000381 0.730000019
vt 14.850000381 0.400000006
vt 8.910000801 0.400000006
vt 8.910000801 0.730000019
vt 17.820001602 0.730000019
vt 17.820001602 0.400000006
vt 14.850000381 0.400000006
vt 14.850000381 0.730000019
vt 11.880000114 0.730000019
vt 11.880000114 0.400000006
vt 17.820001602 0.400000006
vt 17.820001602 0.730000019
vt 8.910000801 0.730000019
vt 8.910000801 0.400000006
vt 11.880000114 0.400000006
vt 11.880000114 0.730000019
vt 0.000000000 0.730000019
vt 0.000000000 0.730000019
vt 0.000000000 0.730000019
vt 0.000000000 0.730000019
vt -0.035000015 0.330000013
vt 0.000000000 0.000000000
vt -1.707073808 0.000000000
vt -1.392073631 0.330000013
vt 2.134166718 0.330000013
vt 2.250703096 0.000000000
vt 0.000000000 0.000000000
vt 0.116536260 0.330000013
vt 2.285703182 0.330000013
vt 3.642776966 0.330000013
vt 3.957777023 0.000000000
vt 2.250703096 0.000000000
vt -0.035000015 0.330000013
vt 0.000000000 0.000000000
vt -1.669592500 0.000000000
vt -1.354592323 0.330000013
vt 0.114765376 0.330000013
vt 0.000000000 0.000000000
vt 0.000000000 0.000000000
vt -0.114765376 0.330000013
vt 0.035000015 0.330000013
vt 1.354592323 0.330000013
vt 1.669592500 0.000000000
vt 0.000000000 0.000000000
vt -0.035000004 0.330000013
vt 0.000000000 0.000000000
vt -1.678334355 0.000000000
vt -1.363334298 0.330000013
vt 2.132850885 0.330000013
vt 2.250703096 0.000000000
vt 0.000000000 0.000000000
vt 0.117852211 0.330000013
vt 2.285703182 0.330000013
vt 3.614037514 0.330000013
vt 3.929037571 0.000000000
vt 2.250703096 0.000000000
vt -0.035000004 0.330000013
vt 0.000000000 0.000000000
vt -1.717468262 0.000000000
vt -1.402468204 0.330000013
vt 0.120029718 0.330000013
vt 0.000000000 0.000000000
vt 0.000000000 0.000000000
vt -0.120029718 0.330000013
vt 0.035000004 0.330000013
vt 1.402468204 0.330000013
vt 1.717468262 0.000000000
vt 0.000000000 0.000000000
vn -0.014055556 0.999505997 -0.028111108
vn -0.014055556 0.999505997 -0.028111108
vn -0.014055556 0.999505997 -0.028111106
vn -0.014055556 0.999505997 -0.028111108
vn -0.014055556 0.999505997 -0.028111108
vn -0.009368007 0.999253750 -0.037472013
vn -0.009368006 0.999253750 -0.037472013
vn -0.014055556 0.999505997 -0.028111106
vn -0.009368007 0.999253750 -0.037472013
vn -0.009368007 0.999253750 -0.037472013
vn -0.009368004 0.999253750 -0.037472013
vn -0.009368006 0.999253750 -0.037472013
vn -0.009368007 0.999253750 -0.037472013
vn -0.009368007 0.999253750 -0.037472013
vn -0.009368007 0.999253750 -0.037472017
vn -0.009368004 0.999253750 -0.037472013
vn -0.009368007 0.999253750 -0.037472013
vn -0.009368001 0.999253750 -0.037472013
vn -0.009368007 0.999253750 -0.037472017
vn -0.009368007 0.999253750 -0.037472017
vn -0.009368001 0.999253750 -0.037472013
vn -0.014055549 0.999505997 -0.028111110
vn -0.014055564 0.999505997 -0.028111110
vn -0.009368007 0.999253750 -0.037472017
vn -0.014055556 0.999505997 -0.028111108
vn -0.014055556 0.999505997 -0.028111106
vn -0.018743413 0.999648631 -0.018743409
vn -0.018743413 0.999648631 -0.018743409
vn -0.014055556 0.999505997 -0.028111106
vn -0.009368006 0.999253750 -0.037472013
vn -0.014055555 0.999505997 -0.028111108
vn -0.018743413 0.999648631 -0.018743409
vn -0.009368006 0.999253750 -0.037472013
vn -0.009368004 0.999253750 -0.037472013
vn -0.014055555 0.999505997 -0.028111106
vn -0.014055555 0.999505997 -0.028111108
vn -0.009368004 0.999253750 -0.037472013
vn -0.009368007 0.999253750 -0.037472017
vn -0.014055557 0.999505997 -0.028111108
vn -0.014055555 0.999505997 -0.028111106
vn -0.009368007 0.999253750 -0.037472017
vn -0.009368007 0.999253750 -0.037472017
vn -0.014055557 0.999505997 -0.028111106
vn -0.014055557 0.999505997 -0.028111108
vn -0.009368007 0.999253750 -0.037472017
vn -0.014055564 0.999505997 -0.028111110
vn -0.018743416 0.999648631 -0.018743407
vn -0.014055557 0.999505997 -0.028111106
vn -0.018743413 0.999648631 -0.018743409
vn -0.018743413 0.999648631 -0.018743409
vn -0.018743413 0.999648631 -0.018743409
vn -0.018743413 0.999648631 -0.018743409
vn -0.018743413 0.999648631 -0.018743409
vn -0.014055555 0.999505997 -0.028111108
vn -0.014055556 0.999505997 -0.028111106
vn -0.018743413 0.999648631 -0.018743409
vn -0.014055555 0.999505997 -0.028111108
vn -0.014055555 0.999505997 -0.028111106
vn -0.014055556 0.999505997 -0.028111106
vn -0.014055556 0.999505997 -0.028111106
vn -0.014055555 0.999505997 -0.028111108
vn -0.014055555 0.999505997 -0.028111106
vn -0.014055556 0.999505997 -0.028111106
vn -0.014055556 0.999505997 -0.028111106
vn 1.000000000 0.000000000 -0.000000060
vn 1.000000000 0.000000000 -0.000000060
vn 1.000000000 0.000000000 -0.000000060
vn 1.000000000 0.000000000 -0.000000060
vn -0.000000060 0.000000000 -1.000000000
vn -0.000000060 0.000000000 -1.000000000
vn -0.000000060 0.000000000 -1.000000000
vn -0.000000060 0.000000000 -1.000000000
vn 0.000000060 0.000000000 1.000000000
vn 0.000000060 0.000000000 1.000000000
vn 0.000000060 0.000000000 1.000000000
vn 0.000000060 0.000000000 1.000000000
vn 0.000000000 1.000000000 0.000000000
vn 0.000000000 1.000000000 0.000000000
vn 0.000000000 1.000000000 0.000000000
vn 0.000000000 1.000000000 0.000000000
vn -0.000000060 0.000000000 -1.000000000
vn -0.000000060 0.000000000 -1.000000000
vn -0.000000060 0.000000000 -1.000000000
vn -0.000000060 0.000000000 -1.000000000
vn 1.000000000 0.000000000 -0.000000060
vn 1.000000000 0.000000000 -0.000000060
vn 1.000000000 0.000000000 -0.000000060
vn 1.000000000 0.000000000 -0.000000060
vn -1.000000000 0.000000000 0.000000060
vn -1.000000000 0.000000000 0.000000060
vn -1.000000000 0.000000000 0.000000060
vn -1.000000000 0.000000000 0.000000060
vn 0.000000000 1.000000000 0.000000000
vn 0.000000000 1.000000000 0.000000000
vn 0.000000000 1.000000000 0.000000000
vn 0.000000000 1.000000000 0.000000000
vn -0.014055555 0.999505997 -0.028111106
vn -0.014055557 0.999505997 -0.028111108
vn -0.014055555 0.999505997 -0.028111108
vn -0.014055556 0.999505997 -0.028111106
vn -0.014055555 0.999505997 -0.028111106
vn -0.014055557 0.999505997 -0.028111108
vn -0.014055555 0.999505997 -0.028111108
vn -0.014055556 0.999505997 -0.028111106
vn 0.000000060 0.000000000 1.000000000
vn 0.000000060 0.000000000 1.000000000
vn 0.000000060 0.000000000 1.000000000
vn 0.000000060 0.000000000 1.000000000
vn 1.000000000 0.000000000 -0.000000060
vn 1.000000000 0.000000000 -0.000000060
vn 1.000000000 0.000000000 -0.000000060
vn 1.000000000 0.000000000 -0.000000060
vn -1.000000000 0.000000000 0.000000060
vn -1.000000000 0.000000000 0.000000060
vn -1.000000000 0.000000000 0.000000060
vn -1.000000000 0.000000000 0.000000060
vn 0.000000000 1.000000000 0.000000000
vn 0.000000000 1.000000000 0.000000000
vn 0.000000000 1.000000000 0.000000000
vn 0.000000000 1.000000000 0.000000000
vn -0.014055557 0.999505997 -0.028111108
vn -0.014055557 0.999505997 -0.028111106
vn -0.014055557 0.999505997 -0.028111110
vn -0.014055555 0.999505997 -0.028111108
vn -0.014055557 0.999505997 -0.028111108
vn -0.014055557 0.999505997 -0.028111106
vn -0.014055557 0.999505997 -0.028111110
vn -0.014055555 0.999505997 -0.028111108
vn -0.014055557 0.999505997 -0.028111108
vn -0.014055557 0.999505997 -0.028111106
vn -0.014055557 0.999505997 -0.028111110
vn -0.014055555 0.999505997 -0.028111108
vn -0.707106709 0.000000000 0.707106829
vn -0.707106709 0.000000000 0.707106829
vn -0.707106709 0.000000000 0.707106829
vn -0.707106709 0.000000000 0.707106829
vn 0.707106709 0.000000000 -0.707106829
vn 0.707106709 0.000000000 -0.707106829
vn 0.707106709 0.000000000 -0.707106829
vn 0.707106709 0.000000000 -0.707106829
vn -0.014055557 0.999505997 -0.028111106
vn -0.018743416 0.999648631 -0.018743407
vn -0.018743411 0.999648631 -0.018743411
vn -0.014055557 0.999505997 -0.028111110
vn -0.018743413 0.999648631 -0.018743409
vn -0.018743413 0.999648631 -0.018743409
vn -0.018743413 0.999648631 -0.018743409
vn -0.018743413 0.999648631 -0.018743409
vn -0.018743413 0.999648631 -0.018743409
vn -0.014055556 0.999505997 -0.028111106
vn -0.014055556 0.999505997 -0.028111108
vn -0.018743413 0.999648631 -0.018743409
vn -0.014055556 0.999505997 -0.028111106
vn -0.014055556 0.999505997 -0.028111106
vn -0.014055555 0.999505997 -0.028111108
vn -0.014055556 0.999505997 -0.028111108
vn -0.014055556 0.999505997 -0.028111106
vn -0.014055556 0.999505997 -0.028111106
vn -0.014055555 0.999505997 -0.028111108
vn -0.014055556 0.999505997 -0.028111108
vn -1.000000000 0.000000000 0.000000060
vn -1.000000000 0.000000000 0.000000060
vn -1.000000000 0.000000000 0.000000060
vn -1.000000000 0.000000000 0.000000060
vn -0.000000060 0.000000000 -1.000000000
vn -0.000000060 0.000000000 -1.000000000
vn -0.000000060 0.000000000 -1.000000000
vn -0.000000060 0.000000000 -1.000000000
vn 0.000000060 0.000000000 1.000000000
vn 0.000000060 0.000000000 1.000000000
vn 0.000000060 0.000000000 1.000000000
vn 0.000000060 0.000000000 1.000000000
vn 0.000000000 1.000000000 0.000000000
vn 0.000000000 1.000000000 0.000000000
vn 0.000000000 1.000000000 0.000000000
vn 0.000000000 1.000000000 0.000000000
vn -0.014055556 0.999505997 -0.028111106
vn -0.014055555 0.999505997 -0.028111108
vn -0.014055555 0.999505997 -0.028111106
vn -0.014055555 0.999505997 -0.028111108
vn -0.014055556 0.999505997 -0.028111106
vn -0.014055555 0.999505997 -0.028111108
vn -0.014055555 0.999505997 -0.028111106
vn -0.014055555 0.999505997 -0.028111108
vn -0.014055556 0.999505997 -0.028111106
vn -0.014055555 0.999505997 -0.028111108
vn -0.014055555 0.999505997 -0.028111106
vn -0.014055555 0.999505997 -0.028111108
vn -0.707107008 0.000000000 -0.707106590
vn -0.707107008 0.000000000 -0.707106590
vn -0.707107008 0.000000000 -0.707106590
vn -0.707107008 0.000000000 -0.707106590
vn 0.000000000 1.000000000 0.000000000
vn 0.000000000 1.000000000 0.000000000
vn 0.000000000 1.000000000 0.000000000
vn 0.000000000 1.000000000 0.000000000
vn 0.707106709 0.000000000 0.707106829
vn 0.707106709 0.000000000 0.707106829
vn 0.707106709 0.000000000 0.707106829
vn 0.707106709 0.000000000 0.707106829
vn 0.707106709 0.000000000 -0.707106829
vn 0.707106709 0.000000000 -0.707106829
vn 0.707106709 0.000000000 -0.707106829
vn 0.707106709 0.000000000 -0.707106829
vn -0.707106709 0.000000000 0.707106829
vn -0.707106709 0.000000000 0.707106829
vn -0.707106709 0.000000000 0.707106829
vn -0.707106709 0.000000000 0.707106829
vn -0.014055555 0.999505997 -0.028111108
vn -0.014055557 0.999505997 -0.028111110
vn -0.014055557 0.999505997 -0.028111108
vn -0.014055555 0.999505997 -0.028111106
vn -0.014055557 0.999505997 -0.028111110
vn -0.018743411 0.999648631 -0.018743411
vn -0.018743416 0.999648631 -0.018743411
vn -0.014055557 0.999505997 -0.028111108
vn -0.018743413 0.999648631 -0.018743409
vn -0.018743413 0.999648631 -0.018743409
vn -0.018743413 0.999648631 -0.018743409
vn -0.018743413 0.999648631 -0.018743409
vn -0.018743413 0.999648631 -0.018743409
vn -0.014055556 0.999505997 -0.028111108
vn -0.014055556 0.999505997 -0.028111106
vn -0.018743413 0.999648631 -0.018743409
vn -0.018743413 0.999648631 -0.018743409
vn -0.014055556 0.999505997 -0.028111108
vn -0.014055556 0.999505997 -0.028111106
vn -0.018743413 0.999648631 -0.018743409
vn -1.000000000 0.000000000 0.000000060
vn -1.000000000 0.000000000 0.000000060
vn -1.000000000 0.000000000 0.000000060
vn -1.000000000 0.000000000 0.000000060
vn -0.018743413 0.999648631 -0.018743409
vn -0.014055556 0.999505997 -0.028111108
vn -0.014055556 0.999505997 -0.028111106
vn -0.018743413 0.999648631 -0.018743409
vn -0.014055556 0.999505997 -0.028111108
vn -0.014055555 0.999505997 -0.028111108
vn -0.014055556 0.999505997 -0.028111106
vn -0.014055556 0.999505997 -0.028111106
vn -0.014055556 0.999505997 -0.028111108
vn -0.014055555 0.999505997 -0.028111108
vn -0.014055556 0.999505997 -0.028111106
vn -0.014055556 0.999505997 -0.028111106
vn -1.000000000 0.000000000 0.000000060
vn -1.000000000 0.000000000 0.000000060
vn -1.000000000 0.000000000 0.000000060
vn -1.000000000 0.000000000 0.000000060
vn -0.000000060 0.000000000 -1.000000000
vn -0.000000060 0.000000000 -1.000000000
vn -0.000000060 0.000000000 -1.000000000
vn -0.000000060 0.000000000 -1.000000000
vn -0.014055556 0.999505997 -0.028111108
vn -0.014055555 0.999505997 -0.028111108
vn -0.014055556 0.999505997 -0.028111106
vn -0.014055556 0.999505997 -0.028111106
vn -0.014055555 0.999505997 -0.028111108
vn -0.014055555 0.999505997 -0.028111106
vn -0.014055556 0.999505997 -0.028111106
vn -0.014055556 0.999505997 -0.028111106
vn -0.014055555 0.999505997 -0.028111106
vn -0.014055557 0.999505997 -0.028111108
vn -0.014055555 0.999505997 -0.028111108
vn -0.014055556 0.999505997 -0.028111106
vn -0.014055555 0.999505997 -0.028111106
vn -0.014055557 0.999505997 -0.028111108
vn -0.014055555 0.999505997 -0.028111108
vn -0.014055556 0.999505997 -0.028111106
vn -0.014055557 0.999505997 -0.028111108
vn -0.018743416 0.999648631 -0.018743411
vn -0.018743416 0.999648631 -0.018743411
vn -0.014055555 0.999505997 -0.028111108
vn -0.018743413 0.999648631 -0.018743409
vn -0.018743413 0.999648631 -0.018743409
vn -0.014055557 0.999505997 -0.028111108
vn -0.014055557 0.999505997 -0.028111106
vn -0.018743413 0.999648631 -0.018743409
vn -0.014055556 0.999505997 -0.028111106
vn -0.009368006 0.999253750 -0.037472013
vn -0.014055557 0.999505997 -0.028111108
vn -0.014055556 0.999505997 -0.028111106
vn -0.014055556 0.999505997 -0.028111106
vn -0.009368006 0.999253750 -0.037472013
vn -0.009368006 0.999253750 -0.037472013
vn -0.014055556 0.999505997 -0.028111106
vn -0.014055556 0.999505997 -0.028111106
vn -0.009368006 0.999253750 -0.037472013
vn -0.009368006 0.999253750 -0.037472013
vn -0.014055556 0.999505997 -0.028111106
vn -0.014055555 0.999505997 -0.028111108
vn -0.009368004 0.999253750 -0.037472013
vn -0.009368006 0.999253750 -0.037472013
vn -0.014055555 0.999505997 -0.028111108
vn -0.018743416 0.999648631 -0.018743411
vn -0.014055557 0.999505997 -0.028111106
vn -0.009368004 0.999253750 -0.037472013
vn -0.014055555 0.999505997 -0.028111108
vn -0.014055555 0.999505997 -0.028111106
vn -0.014055556 0.999505997 -0.028111106
vn -0.014055556 0.999505997 -0.028111106
vn -0.000000060 0.000000000 -1.000000000
vn -0.000000060 0.000000000 -1.000000000
vn -0.000000060 0.000000000 -1.000000000
vn -0.000000060 0.000000000 -1.000000000
vn 0.000000060 0.000000000 1.000000000
vn 0.000000060 0.000000000 1.000000000
vn 0.000000060 0.000000000 1.000000000
vn 0.000000060 0.000000000 1.000000000
vn 1.000000000 0.000000000 -0.000000060
vn 1.000000000 0.000000000 -0.000000060
vn 1.000000000 0.000000000 -0.000000060
vn 1.000000000 0.000000000 -0.000000060
vn -1.000000000 0.000000000 0.000000060
vn -1.000000000 0.000000000 0.000000060
vn -1.000000000 0.000000000 0.000000060
vn -1.000000000 0.000000000 0.000000060
vn 0.000000000 1.000000000 0.000000000
vn 0.000000000 1.000000000 0.000000000
vn 0.000000000 1.000000000 0.000000000
vn 0.000000000 1.000000000 0.000000000
vn 0.219495952 0.975537181 -0.012194249
vn 0.219495952 0.975537181 -0.012194249
vn 0.219495952 0.975537181 -0.012194249
vn 0.219495952 0.975537181 -0.012194249
vn -0.009139779 0.974912286 0.222401738
vn -0.009139779 0.974912286 0.222401738
vn -0.009139779 0.974912286 0.222401738
vn -0.009139779 0.974912286 0.222401738
vn -0.242517710 0.970071197 -0.012125895
vn -0.242517710 0.970071197 -0.012125895
vn -0.242517710 0.970071197 -0.012125895
vn -0.242517710 0.970071197 -0.012125895
vn -0.009101367 0.970811963 -0.239669248
vn -0.009101367 0.970811963 -0.239669248
vn -0.009101367 0.970811963 -0.239669248
vn -0.009101367 0.970811963 -0.239669248
vn -1.000000000 0.000000000 0.000000060
vn -1.000000000 0.000000000 0.000000060
vn -1.000000000 0.000000000 0.000000060
vn -1.000000000 0.000000000 0.000000060
vn -0.000000060 0.000000000 -1.000000000
vn -0.000000060 0.000000000 -1.000000000
vn -0.000000060 0.000000000 -1.000000000
vn -0.000000060 0.000000000 -1.000000000
vn 1.000000000 0.000000000 -0.000000060
vn 1.000000000 0.000000000 -0.000000060
vn 1.000000000 0.000000000 -0.000000060
vn 1.000000000 0.000000000 -0.000000060
vn 0.000000060 0.000000000 1.000000000
vn 0.000000060 0.000000000 1.000000000
vn 0.000000060 0.000000000 1.000000000
vn 0.000000060 0.000000000 1.000000000
vn 0.000000000 -1.000000000 0.000000000
vn 0.000000000 -1.000000000 0.000000000
vn 0.000000000 -1.000000000 0.000000000
vn 0.000000000 -1.000000000 0.000000000
vn 0.219495952 0.975537181 -0.012194249
vn 0.219495952 0.975537181 -0.012194249
vn 0.219495952 0.975537181 -0.012194249
vn 0.219495952 0.975537181 -0.012194249
vn 0.219495952 0.975537181 -0.012194249
vn 0.219495952 0.975537181 -0.012194249
vn 0.219495952 0.975537181 -0.012194249
vn 0.219495952 0.975537181 -0.012194249
vn 0.219495952 0.975537181 -0.012194249
vn 0.219495952 0.975537181 -0.012194249
vn 0.219495952 0.975537181 -0.012194249
vn 0.219495952 0.975537181 -0.012194249
vn -0.009139779 0.974912286 0.222401738
vn -0.009139779 0.974912286 0.222401738
vn -0.009139779 0.974912286 0.222401738
vn -0.009139779 0.974912286 0.222401738
vn -0.009139779 0.974912286 0.222401738
vn -0.009139779 0.974912286 0.222401738
vn -0.009139779 0.974912286 0.222401738
vn -0.009139779 0.974912286 0.222401738
vn -0.009139779 0.974912286 0.222401738
vn -0.009139779 0.974912286 0.222401738
vn -0.009139779 0.974912286 0.222401738
vn -0.009139779 0.974912286 0.222401738
vn -0.242517710 0.970071197 -0.012125895
vn -0.242517710 0.970071197 -0.012125895
vn -0.242517710 0.970071197 -0.012125895
vn -0.242517710 0.970071197 -0.012125895
vn -0.242517710 0.970071197 -0.012125895
vn -0.242517710 0.970071197 -0.012125895
vn -0.242517710 0.970071197 -0.012125895
vn -0.242517710 0.970071197 -0.012125895
vn -0.242517710 0.970071197 -0.012125895
vn -0.242517710 0.970071197 -0.012125895
vn -0.242517710 0.970071197 -0.012125895
vn -0.242517710 0.970071197 -0.012125895
vn -0.009101367 0.970811963 -0.239669248
vn -0.009101367 0.970811963 -0.239669248
vn -0.009101367 0.970811963 -0.239669248
vn -0.009101367 0.970811963 -0.239669248
vn -0.009101367 0.970811963 -0.239669248
vn -0.009101367 0.970811963 -0.239669248
vn -0.009101367 0.970811963 -0.239669248
vn -0.009101367 0.970811963 -0.239669248
vn -0.009101367 0.970811963 -0.239669248
vn -0.009101367 0.970811963 -0.239669248
vn -0.009101367 0.970811963 -0.239669248
vn -0.009101367 0.970811963 -0.239669248
vn 0.236777037 0.971393287 -0.018213617
vn 0.236777037 0.971393287 -0.018213617
vn 0.236777037 0.971393287 -0.018213617
vn 0.236777037 0.971393287 -0.018213617
vn -0.006089136 0.974270403 0.225299954
vn -0.006089136 0.974270403 0.225299954
vn -0.006089136 0.974270403 0.225299954
vn -0.006089136 0.974270403 0.225299954
vn -0.259497941 0.965573967 -0.018104525
vn -0.259497941 0.965573967 -0.018104525
vn -0.259497941 0.965573967 -0.018104525
vn -0.259497941 0.965573967 -0.018104525
vn -0.006016538 0.962633550 -0.270740598
vn -0.006016538 0.962633550 -0.270740598
vn -0.006016538 0.962633550 -0.270740598
vn -0.006016538 0.962633550 -0.270740598
vn -1.000000000 0.000000000 0.000000060
vn -1.000000000 0.000000000 0.000000060
vn -1.000000000 0.000000000 0.000000060
vn -1.000000000 0.000000000 0.000000060
vn -0.000000060 0.000000000 -1.000000000
vn -0.000000060 0.000000000 -1.000000000
vn -0.000000060 0.000000000 -1.000000000
vn -0.000000060 0.000000000 -1.000000000
vn 1.000000000 0.000000000 -0.000000060
vn 1.000000000 0.000000000 -0.000000060
vn 1.000000000 0.000000000 -0.000000060
vn 1.000000000 0.000000000 -0.000000060
vn 0.000000060 0.000000000 1.000000000
vn 0.000000060 0.000000000 1.000000000
vn 0.000000060 0.000000000 1.000000000
vn 0.000000060 0.000000000 1.000000000
vn 0.000000000 -1.000000000 0.000000000
vn 0.000000000 -1.000000000 0.000000000
vn 0.000000000 -1.000000000 0.000000000
vn 0.000000000 -1.000000000 0.000000000
vn 0.236777037 0.971393287 -0.018213617
vn 0.236777037 0.971393287 -0.018213617
vn 0.236777037 0.971393287 -0.018213617
vn 0.236777037 0.971393287 -0.018213617
vn 0.236777037 0.971393287 -0.018213617
vn 0.236777037 0.971393287 -0.018213617
vn 0.236777037 0.971393287 -0.018213617
vn 0.236777037 0.971393287 -0.018213617
vn 0.236777037 0.971393287 -0.018213617
vn 0.236777037 0.971393287 -0.018213617
vn 0.236777037 0.971393287 -0.018213617
vn 0.236777037 0.971393287 -0.018213617
vn -0.006089136 0.974270403 0.225299954
vn -0.006089136 0.974270403 0.225299954
vn -0.006089136 0.974270403 0.225299954
vn -0.006089136 0.974270403 0.225299954
vn -0.006089136 0.974270403 0.225299954
vn -0.006089136 0.974270403 0.225299954
vn -0.006089136 0.974270403 0.225299954
vn -0.006089136 0.974270403 0.225299954
vn -0.006089136 0.974270403 0.225299954
vn -0.006089136 0.974270403 0.225299954
vn -0.006089136 0.974270403 0.225299954
vn -0.006089136 0.974270403 0.225299954
vn -0.259497941 0.965573967 -0.018104525
vn -0.259497941 0.965573967 -0.018104525
vn -0.259497941 0.965573967 -0.018104525
vn -0.259497941 0.965573967 -0.018104525
vn -0.259497941 0.965573967 -0.018104525
vn -0.259497941 0.965573967 -0.018104525
vn -0.259497941 0.965573967 -0.018104525
vn -0.259497941 0.965573967 -0.018104525
vn -0.259497941 0.965573967 -0.018104525
vn -0.259497941 0.965573967 -0.018104525
vn -0.259497941 0.965573967 -0.018104525
vn -0.259497941 0.965573967 -0.018104525
vn -0.006016538 0.962633550 -0.270740598
vn -0.006016538 0.962633550 -0.270740598
vn -0.006016538 0.962633550 -0.270740598
vn -0.006016538 0.962633550 -0.270740598
vn -0.006016538 0.962633550 -0.270740598
vn -0.006016538 0.962633550 -0.270740598
vn -0.006016538 0.962633550 -0.270740598
vn -0.006016538 0.962633550 -0.270740598
vn -0.006016538 0.962633550 -0.270740598
vn -0.006016538 0.962633550 -0.270740598
vn -0.006016538 0.962633550 -0.270740598
vn -0.006016538 0.962633550 -0.270740598
f 1/1/1 3/3/3 2/2/2
f 3/3/3 1/1/1 4/4/4
f 5/5/5 7/7/7 6/6/6
f 7/7/7 5/5/5 8/8/8
f 9/9/9 11/11/11 10/10/10
f 11/11/11 9/9/9 12/12/12
f 13/13/13 15/15/15 14/14/14
f 15/15/15 13/13/13 16/16/16
f 17/17/17 19/19/19 18/18/18
f 19/19/19 17/17/17 20/20/20
f 21/21/21 23/23/23 22/22/22
f 23/23/23 21/21/21 24/24/24
f 25/25/25 27/27/27 26/26/26
f 27/27/27 25/25/25 28/28/28
f 29/29/29 31/31/31 30/30/30
f 31/31/31 29/29/29 32/32/32
f 33/33/33 35/35/35 34/34/34
f 35/35/35 33/33/33 36/36/36
f 37/37/37 39/39/39 38/38/38
f 39/39/39 37/37/37 40/40/40
f 41/41/41 43/43/43 42/42/42
f 43/43/43 41/41/41 44/44/44
f 45/45/45 47/47/47 46/46/46
f 47/47/47 45/45/45 48/48/48
f 49/49/49 51/51/51 50/50/50
f 51/51/51 49/49/49 52/52/52
f 53/53/53 55/55/55 54/54/54
f 55/55/55 53/53/53 56/56/56
f 57/57/57 59/59/59 58/58/58
f 59/59/59 57/57/57 60/60/60
f 61/61/61 63/63/63 62/62/62
f 63/63/63 61/61/61 64/64/64
f 65/65/65 66/66/66 67/67/67
f 67/67/67 66/66/66 68/68/68
f 69/69/69 70/70/70 71/71/71
f 71/71/71 70/70/70 72/72/72
f 73/73/73 74/74/74 75/75/75
f 75/75/75 74/74/74 76/76/76
f 77/77/77 78/78/78 79/79/79
f 79/79/79 78/78/78 80/80/80
f 81/81/81 82/82/82 83/83/83
f 83/83/83 82/82/82 84/84/84
f 85/85/85 86/86/86 87/87/87
f 87/87/87 86/86/86 88/88/88
f 89/89/89 90/90/90 91/91/91
f 91/91/91 90/90/90 92/92/92
f 93/93/93 94/94/94 95/95/95
f 95/95/95 94/94/94 96/96/96
f 97/97/97 99/99/99 98/98/98
f 99/99/99 97/97/97 100/100/100
f 101/101/101 103/103/103 102/102/102
f 103/103/103 101/101/101 104/104/104
f 105/105/105 106/106/106 107/107/107
f 107/107/107 106/106/106 108/108/108
f 109/109/109 110/110/110 111/111/111
f 111/111/111 110/110/110 112/112/112
f 113/113/113 114/114/114 115/115/115
f 115/115/115 114/114/114 116/116/116
f 117/117/117 118/118/118 119/119/119
f 119/119/119 118/118/118 120/120/120
f 121/121/121 123/123/123 122/122/122
f 123/123/123 121/121/121 124/124/124
f 125/125/125 128/128/128 126/126/126
f 130/130/130 132/132/132 131/131/131
f 133/133/133 134/134/134 135/135/135
f 135/135/135 134/134/134 136/136/136
f 137/137/137 138/138/138 139/139/139
f 139/139/139 138/138/138 140/140/140
f 141/141/141 143/143/143 142/142/142
f 143/143/143 141/141/141 144/144/144
f 145/145/145 147/147/147 146/146/146
f 147/147/147 145/145/145 148/148/148
f 149/149/149 151/151/151 150/150/150
f 151/151/151 149/149/149 152/152/152
f 153/153/153 155/155/155 154/154/154
f 155/155/155 153/153/153 156/156/156
f 157/157/157 159/159/159 158/158/158
f 159/159/159 157/157/157 160/160/160
f 161/161/161 162/162/162 163/163/163
f 163/163/163 162/162/162 164/164/164
f 165/165/165 166/166/166 167/167/167
f 167/167/167 166/166/166 168/168/168
f 169/169/169 170/170/170 171/171/171
f 171/171/171 170/170/170 172/172/172
f 173/173/173 174/174/174 175/175/175
f 175/175/175 174/174/174 176/176/176
f 177/177/177 179/179/179 178/178/178
f 179/179/179 177/177/177 180/180/180
f 181/181/181 183/183/183 182/182/182
f 187/187/187 185/185/185 188/188/188
f 189/189/189 190/190/190 191/191/191
f 191/191/191 190/190/190 192/192/192
f 193/193/193 194/194/194 195/195/195
f 195/195/195 194/194/194 196/196/196
f 197/197/197 198/198/198 199/199/199
f 199/199/199 198/198/198 200/200/200
f 201/201/201 202/202/202 203/203/203
f 203/203/203 202/202/202 204/204/204
f 205/205/205 206/206/206 207/207/207
f 207/207/207 206/206/206 208/208/208
f 209/209/209 211/211/211 210/210/210
f 211/211/211 209/209/209 212/212/212
f 213/213/213 215/215/215 214/214/214
f 215/215/215 213/213/213 216/216/216
f 217/217/217 219/219/219 218/218/218
f 219/219/219 217/217/217 220/220/220
f 221/221/221 223/223/223 222/222/222
f 223/223/223 221/221/221 224/224/224
f 225/225/225 227/227/227 226/226/226
f 227/227/227 225/225/225 228/228/228
f 229/229/229 231/231/231 230/230/230
f 229/229/229 232/232/232 231/231/231
f 233/233/233 235/235/235 234/234/234
f 235/235/235 233/233/233 236/236/236
f 237/237/237 239/239/239 238/238/238
f 239/239/239 237/237/237 240/240/240
f 241/241/241 243/243/243 242/242/242
f 243/243/243 241/241/241 244/244/244
f 245/245/245 247/247/247 246/246/246
f 245/245/245 248/248/248 247/247/247
f 249/249/249 251/251/251 250/250/250
f 249/249/249 252/252/252 251/251/251
f 253/253/253 255/255/255 254/254/254
f 255/255/255 253/253/253 256/256/256
f 257/257/257 259/259/259 258/258/258
f 259/259/259 257/257/257 260/260/260
f 261/261/261 263/263/263 262/262/262
f 263/263/263 261/261/261 264/264/264
f 265/265/265 267/267/267 266/266/266
f 267/267/267 265/265/265 268/268/268
f 269/269/269 271/271/271 270/270/270
f 271/271/271 269/269/269 272/272/272
f 273/273/273 275/275/275 274/274/274
f 275/275/275 273/273/273 276/276/276
f 277/277/277 279/279/279 278/278/278
f 279/279/279 277/277/277 280/280/280
f 281/281/281 283/283/283 282/282/282
f 283/283/283 281/281/281 284/284/284
f 285/285/285 287/287/287 286/286/286
f 287/287/287 285/285/285 288/288/288
f 289/289/289 291/291/291 290/290/290
f 291/291/291 289/289/289 292/292/292
f 293/293/293 295/295/295 294/294/294
f 295/295/295 293/293/293 296/296/296
f 297/297/297 299/299/299 298/298/298
f 299/299/299 297/297/297 300/300/300
f 301/301/301 302/302/302 303/303/303
f 303/303/303 302/302/302 304/304/304
f 305/305/305 306/306/306 307/307/307
f 307/307/307 306/306/306 308/308/308
f 309/309/309 310/310/310 311/311/311
f 311/311/311 310/310/310 312/312/312
f 313/313/313 314/314/314 315/315/315
f 315/315/315 314/314/314 316/316/316
f 317/317/317 318/318/318 319/319/319
f 319/319/319 318/318/318 320/320/320
f 323/323/323 322/322/322 321/321/321
f 321/321/321 324/324/324 323/323/323
f 327/327/327 326/326/326 325/325/325
f 325/325/325 328/328/328 327/327/327
f 331/331/331 330/330/330 329/329/329
f 329/329/329 332/332/332 331/331/331
f 335/335/335 334/334/334 333/333/333
f 333/333/333 336/336/336 335/335/335
f 339/339/339 337/337/337 338/338/338
f 337/337/337 339/339/339 340/340/340
f 343/343/343 341/341/341 342/342/342
f 341/341/341 343/343/343 344/344/344
f 347/347/347 345/345/345 346/346/346
f 345/345/345 347/347/347 348/348/348
f 351/351/351 349/349/349 350/350/350
f 349/349/349 351/351/351 352/352/352
f 355/355/355 354/354/354 353/353/353
f 353/353/353 356/356/356 355/355/355
f 359/359/359 358/358/358 357/357/357
f 357/357/357 360/360/360 359/359/359
f 363/363/363 362/362/362 361/361/361
f 361/361/361 363/363/363 364/364/364
f 367/367/367 366/366/366 365/365/365
f 365/365/365 368/368/368 367/367/367
f 371/371/371 370/370/370 369/369/369
f 369/369/369 372/372/372 371/371/371
f 375/375/375 374/374/374 373/373/373
f 373/373/373 376/376/376 375/375/375
f 379/379/379 378/378/378 377/377/377
f 377/377/377 380/380/380 379/379/379
f 383/383/383 382/382/382 381/381/381
f 381/381/381 384/384/384 383/383/383
f 387/387/387 386/386/386 385/385/385
f 385/385/385 387/387/387 388/388/388
f 391/391/391 390/390/390 389/389/389
f 389/389/389 392/392/392 391/391/391
f 395/395/395 394/394/394 393/393/393
f 393/393/393 396/396/396 395/395/395
f 399/399/399 398/398/398 397/397/397
f 397/397/397 400/400/400 399/399/399
f 403/403/403 402/402/402 401/401/401
f 401/401/401 404/404/404 403/403/403
f 407/407/407 406/406/406 405/405/405
f 405/405/405 408/408/408 407/407/407
f 411/411/411 410/410/410 409/409/409
f 409/409/409 412/412/412 411/411/411
f 415/415/415 414/414/414 413/413/413
f 413/413/413 416/416/416 415/415/415
f 419/419/419 418/418/418 417/417/417
f 417/417/417 420/420/420 419/419/419
f 423/423/423 421/421/421 422/422/422
f 421/421/421 423/423/423 424/424/424
f 427/427/427 425/425/425 426/426/426
f 425/425/425 427/427/427 428/428/428
f 431/431/431 429/429/429 430/430/430
f 429/429/429 431/431/431 432/432/432
f 435/435/435 433/433/433 434/434/434
f 433/433/433 435/435/435 436/436/436
f 439/439/439 438/438/438 437/437/437
f 437/437/437 440/440/440 439/439/439
f 443/443/443 442/442/442 441/441/441
f 441/441/441 444/444/444 443/443/443
f 447/447/447 446/446/446 445/445/445
f 445/445/445 448/448/448 447/447/447
f 451/451/451 450/450/450 449/449/449
f 449/449/449 452/452/452 451/451/451
f 455/455/455 454/454/454 453/453/453
f 453/453/453 456/456/456 455/455/455
f 459/459/459 458/458/458 457/457/457
f 457/457/457 459/459/459 460/460/460
f 463/463/463 462/462/462 461/461/461
f 461/461/461 464/464/464 463/463/463
f 467/467/467 466/466/466 465/465/465
f 465/465/465 468/468/468 467/467/467
f 471/471/471 470/470/470 469/469/469
f 469/469/469 472/472/472 471/471/471
f 475/475/475 474/474/474 473/473/473
f 473/473/473 476/476/476 475/475/475
f 479/479/479 478/478/478 477/477/477
f 477/477/477 480/480/480 479/479/479
f 483/483/483 482/482/482 481/481/481
f 481/481/481 483/483/483 484/484/484
f 487/487/487 486/486/486 485/485/485
f 485/485/485 488/488/488 487/487/487
